<?xml version="1.0" encoding="UTF-8"?>
<svg xmlns="http://www.w3.org/2000/svg" xmlns:xlink="http://www.w3.org/1999/xlink" width="20pt" height="20pt" viewBox="0 0 20 20" version="1.1">
<g id="surface1">
<path style=" stroke:none;fill-rule:nonzero;fill:white;fill-opacity:1;" d="M 16.003906 2.839844 L 4.011719 2.839844 C 3.4375 2.839844 2.96875 3.308594 2.96875 3.882812 L 2.96875 16.132812 C 2.96875 16.710938 3.4375 17.179688 4.011719 17.179688 L 16.003906 17.179688 C 16.582031 17.179688 17.050781 16.710938 17.050781 16.132812 L 17.050781 3.882812 C 17.050781 3.308594 16.582031 2.839844 16.003906 2.839844 Z M 10.199219 8.007812 L 7.132812 12 C 7.101562 12.039062 7.050781 12.0625 7.003906 12.0625 C 6.953125 12.0625 6.902344 12.039062 6.875 12 L 3.808594 8.007812 C 3.785156 7.980469 3.773438 7.945312 3.773438 7.910156 C 3.773438 7.875 3.785156 7.84375 3.804688 7.8125 C 3.847656 7.753906 3.925781 7.730469 3.996094 7.757812 L 6.027344 8.5625 L 6.027344 3.859375 C 6.027344 3.769531 6.097656 3.695312 6.1875 3.699219 L 7.816406 3.699219 C 7.90625 3.699219 7.976562 3.769531 7.980469 3.859375 L 7.976562 8.5625 L 10.007812 7.757812 C 10.078125 7.730469 10.152344 7.753906 10.199219 7.8125 C 10.242188 7.871094 10.242188 7.953125 10.199219 8.007812 Z M 17.96875 0 L 2.050781 0 C 1.011719 0 0.171875 0.84375 0.171875 1.878906 L 0.171875 18.136719 C 0.171875 19.175781 1.011719 20.019531 2.050781 20.019531 L 17.96875 20.019531 C 19.003906 20.019531 19.847656 19.175781 19.847656 18.136719 L 19.847656 1.878906 C 19.847656 0.84375 19.003906 0 17.96875 0 Z M 17.792969 16.132812 C 17.792969 17.117188 16.992188 17.921875 16.003906 17.921875 L 4.011719 17.921875 C 3.027344 17.921875 2.226562 17.121094 2.226562 16.132812 L 2.226562 3.882812 C 2.226562 2.898438 3.027344 2.097656 4.011719 2.097656 L 16.003906 2.097656 C 16.988281 2.097656 17.792969 2.898438 17.792969 3.882812 Z M 17.792969 16.132812 "/>
</g>
</svg>
