<svg xmlns="http://www.w3.org/2000/svg"  xmlns:v="https://vecta.io/nano"><path d="M301.69 53.505H75.65c-10.876 0-19.725 8.843-19.725 19.713v230.904c0 10.878 8.843 19.727 19.725 19.727H301.7c10.873 0 19.722-8.843 19.722-19.727V73.218c-.006-10.87-8.85-19.713-19.723-19.713zM199.166 148.41c-.82 1.102-2.29 1.513-3.573 1.01l-38.28-15.124v88.612c0 1.686-1.365 3.076-3.064 3.065h-30.68c-1.69 0-3.06-1.38-3.07-3.075v-88.598l-38.282 15.114c-1.282.503-2.74.087-3.572-1-.838-1.103-.838-2.615.01-3.72l57.804-75.185a3.09 3.09 0 0 1 2.438-1.193c.952-.01 1.856.438 2.433 1.193l57.804 75.19c.432.56.643 1.23.637 1.87a3.1 3.1 0 0 1-.616 1.851zM338.677 0H38.662C19.094 0 3.226 15.87 3.226 35.434v306.462c0 19.58 15.87 35.447 35.437 35.447h300.02c19.568 0 35.436-15.866 35.436-35.447V35.434C374.117 15.87 358.25 0 338.677 0zm-3.296 304.122c0 18.572-15.113 33.69-33.69 33.69H75.65c-18.576 0-33.695-15.114-33.695-33.69V73.218c0-18.57 15.114-33.688 33.695-33.688H301.7c18.572 0 33.69 15.114 33.69 33.688v230.904z"/></svg>