<?xml version="1.0" encoding="UTF-8"?>
<svg xmlns="http://www.w3.org/2000/svg" xmlns:xlink="http://www.w3.org/1999/xlink" width="20pt" height="20pt" viewBox="0 0 20 20" version="1.1">
<g id="surface1">
<path style=" stroke:none;fill-rule:nonzero;fill:white;fill-opacity:1;" d="M 15.988281 2.835938 L 4.007812 2.835938 C 3.433594 2.835938 2.964844 3.304688 2.964844 3.878906 L 2.964844 16.117188 C 2.964844 16.691406 3.433594 17.160156 4.007812 17.160156 L 15.988281 17.160156 C 16.5625 17.160156 17.03125 16.691406 17.03125 16.117188 L 17.03125 3.878906 C 17.03125 3.304688 16.5625 2.835938 15.988281 2.835938 Z M 12.515625 7.554688 L 8.53125 10.617188 C 8.5 10.640625 8.464844 10.652344 8.429688 10.652344 C 8.398438 10.652344 8.363281 10.640625 8.332031 10.617188 C 8.273438 10.574219 8.253906 10.496094 8.277344 10.429688 L 9.082031 8.402344 L 4.386719 8.402344 C 4.296875 8.402344 4.222656 8.328125 4.222656 8.238281 L 4.222656 6.613281 C 4.222656 6.523438 4.296875 6.449219 4.386719 6.449219 L 9.082031 6.449219 L 8.28125 4.421875 C 8.253906 4.355469 8.273438 4.277344 8.332031 4.234375 C 8.390625 4.1875 8.472656 4.1875 8.53125 4.234375 L 12.515625 7.296875 C 12.554688 7.328125 12.578125 7.375 12.578125 7.425781 C 12.578125 7.476562 12.554688 7.523438 12.515625 7.554688 Z M 17.945312 0 L 2.050781 0 C 1.011719 0 0.171875 0.839844 0.171875 1.878906 L 0.171875 18.117188 C 0.171875 19.15625 1.011719 19.996094 2.046875 19.996094 L 17.945312 19.996094 C 18.984375 19.996094 19.824219 19.15625 19.824219 18.117188 L 19.824219 1.878906 C 19.824219 0.839844 18.984375 0 17.945312 0 Z M 17.773438 16.117188 C 17.773438 17.097656 16.972656 17.902344 15.988281 17.902344 L 4.007812 17.902344 C 3.023438 17.902344 2.222656 17.101562 2.222656 16.117188 L 2.222656 3.878906 C 2.222656 2.894531 3.023438 2.09375 4.007812 2.09375 L 15.988281 2.09375 C 16.972656 2.09375 17.773438 2.894531 17.773438 3.878906 Z M 17.773438 16.117188 "/>
</g>
</svg>
