<?xml version="1.0" encoding="UTF-8"?>
<svg xmlns="http://www.w3.org/2000/svg" xmlns:xlink="http://www.w3.org/1999/xlink" width="20pt" height="20pt" viewBox="0 0 20 20" version="1.1">
<g id="surface1">
<path style=" stroke:none;fill-rule:nonzero;fill:white;fill-opacity:1;" d="M 16.003906 2.839844 L 4.011719 2.839844 C 3.4375 2.839844 2.96875 3.308594 2.96875 3.882812 L 2.96875 16.132812 C 2.96875 16.710938 3.4375 17.179688 4.011719 17.179688 L 16.003906 17.179688 C 16.582031 17.179688 17.050781 16.710938 17.050781 16.132812 L 17.050781 3.882812 C 17.050781 3.308594 16.582031 2.839844 16.003906 2.839844 Z M 10.566406 7.875 C 10.523438 7.929688 10.445312 7.953125 10.375 7.925781 L 8.34375 7.125 L 8.34375 11.824219 C 8.34375 11.914062 8.273438 11.988281 8.183594 11.988281 L 6.554688 11.988281 C 6.464844 11.988281 6.394531 11.914062 6.390625 11.824219 L 6.394531 7.125 L 4.363281 7.925781 C 4.292969 7.953125 4.21875 7.929688 4.171875 7.871094 C 4.128906 7.8125 4.128906 7.734375 4.171875 7.675781 L 7.238281 3.6875 C 7.269531 3.648438 7.320312 3.625 7.367188 3.625 C 7.417969 3.621094 7.46875 3.648438 7.5 3.6875 L 10.566406 7.675781 C 10.585938 7.707031 10.597656 7.742188 10.597656 7.773438 C 10.597656 7.808594 10.585938 7.84375 10.566406 7.875 Z M 17.96875 0 L 2.050781 0 C 1.011719 0 0.171875 0.84375 0.171875 1.878906 L 0.171875 18.136719 C 0.171875 19.175781 1.011719 20.019531 2.050781 20.019531 L 17.96875 20.019531 C 19.003906 20.019531 19.847656 19.175781 19.847656 18.136719 L 19.847656 1.878906 C 19.847656 0.84375 19.003906 0 17.96875 0 Z M 17.792969 16.132812 C 17.792969 17.117188 16.992188 17.921875 16.003906 17.921875 L 4.011719 17.921875 C 3.027344 17.921875 2.226562 17.121094 2.226562 16.132812 L 2.226562 3.882812 C 2.226562 2.898438 3.027344 2.097656 4.011719 2.097656 L 16.003906 2.097656 C 16.988281 2.097656 17.792969 2.898438 17.792969 3.882812 Z M 17.792969 16.132812 "/>
</g>
</svg>
