<?xml version="1.0" encoding="UTF-8"?>
<svg xmlns="http://www.w3.org/2000/svg" xmlns:xlink="http://www.w3.org/1999/xlink" width="20pt" height="20pt" viewBox="0 0 20 20" version="1.1">
<g id="surface1">
<path style=" stroke:none;fill-rule:nonzero;fill:white;fill-opacity:1;" d="M 15.972656 2.832031 L 4.003906 2.832031 C 3.429688 2.832031 2.960938 3.300781 2.960938 3.875 L 2.960938 16.101562 C 2.960938 16.679688 3.429688 17.148438 4.003906 17.148438 L 15.972656 17.148438 C 16.550781 17.148438 17.019531 16.679688 17.019531 16.101562 L 17.019531 3.875 C 17.019531 3.300781 16.550781 2.832031 15.972656 2.832031 Z M 9.972656 12.363281 L 4.730469 12.363281 L 4.730469 4.28125 L 9.929688 4.28125 L 9.929688 5.773438 L 6.738281 5.773438 L 6.738281 7.574219 L 9.488281 7.574219 L 9.488281 9.070312 L 6.738281 9.070312 L 6.738281 10.871094 L 9.972656 10.871094 Z M 17.933594 0 L 2.046875 0 C 1.011719 0 0.171875 0.839844 0.171875 1.875 L 0.171875 18.105469 C 0.171875 19.140625 1.011719 19.980469 2.046875 19.980469 L 17.933594 19.980469 C 18.96875 19.980469 19.808594 19.140625 19.808594 18.105469 L 19.808594 1.875 C 19.808594 0.839844 18.96875 0 17.933594 0 Z M 17.757812 16.101562 C 17.757812 17.085938 16.957031 17.886719 15.972656 17.886719 L 4.003906 17.886719 C 3.023438 17.886719 2.222656 17.085938 2.222656 16.101562 L 2.222656 3.875 C 2.222656 2.894531 3.023438 2.09375 4.003906 2.09375 L 15.972656 2.09375 C 16.957031 2.09375 17.757812 2.894531 17.757812 3.875 Z M 17.757812 16.101562 "/>
</g>
</svg>
