<?xml version="1.0" encoding="UTF-8"?>
<svg xmlns="http://www.w3.org/2000/svg" xmlns:xlink="http://www.w3.org/1999/xlink" width="20pt" height="20pt" viewBox="0 0 20 20" version="1.1">
<g id="surface1">
<path style=" stroke:none;fill-rule:nonzero;fill:white;fill-opacity:1;" d="M 16.003906 2.839844 L 4.011719 2.839844 C 3.4375 2.839844 2.964844 3.308594 2.964844 3.882812 L 2.964844 16.132812 C 2.964844 16.710938 3.4375 17.179688 4.011719 17.179688 L 16.003906 17.179688 C 16.582031 17.179688 17.050781 16.710938 17.050781 16.132812 L 17.050781 3.882812 C 17.050781 3.308594 16.582031 2.839844 16.003906 2.839844 Z M 4.167969 7.140625 L 8.15625 4.074219 C 8.1875 4.050781 8.222656 4.039062 8.257812 4.039062 C 8.292969 4.039062 8.324219 4.050781 8.355469 4.074219 C 8.414062 4.117188 8.433594 4.195312 8.410156 4.261719 L 7.605469 6.292969 L 12.304688 6.292969 C 12.394531 6.292969 12.46875 6.367188 12.46875 6.457031 L 12.46875 8.082031 C 12.46875 8.171875 12.394531 8.246094 12.304688 8.246094 L 7.605469 8.246094 L 8.40625 10.277344 C 8.433594 10.34375 8.414062 10.421875 8.355469 10.464844 C 8.296875 10.511719 8.214844 10.511719 8.15625 10.464844 L 4.167969 7.398438 C 4.128906 7.367188 4.105469 7.320312 4.105469 7.269531 C 4.105469 7.21875 4.128906 7.171875 4.167969 7.140625 Z M 17.96875 0 L 2.050781 0 C 1.011719 0 0.171875 0.84375 0.171875 1.878906 L 0.171875 18.136719 C 0.171875 19.175781 1.011719 20.019531 2.050781 20.019531 L 17.96875 20.019531 C 19.003906 20.019531 19.847656 19.175781 19.847656 18.136719 L 19.847656 1.878906 C 19.847656 0.84375 19.003906 0 17.96875 0 Z M 17.792969 16.132812 C 17.792969 17.117188 16.992188 17.921875 16.003906 17.921875 L 4.011719 17.921875 C 3.027344 17.921875 2.226562 17.121094 2.226562 16.132812 L 2.226562 3.882812 C 2.226562 2.898438 3.027344 2.097656 4.011719 2.097656 L 16.003906 2.097656 C 16.988281 2.097656 17.792969 2.898438 17.792969 3.882812 Z M 17.792969 16.132812 "/>
</g>
</svg>
