<?xml version="1.0" encoding="UTF-8"?>
<svg xmlns="http://www.w3.org/2000/svg" xmlns:xlink="http://www.w3.org/1999/xlink" width="20pt" height="20pt" viewBox="0 0 20 20" version="1.1">
<g id="surface1">
<path style=" stroke:none;fill-rule:nonzero;fill:white;fill-opacity:1;" d="M 6.03125 5.238281 L 8.324219 5.238281 L 8.324219 10.339844 L 6.03125 10.339844 Z M 17.019531 3.878906 L 17.019531 16.105469 C 17.019531 16.679688 16.550781 17.148438 15.976562 17.148438 L 4.007812 17.148438 C 3.429688 17.148438 2.960938 16.679688 2.960938 16.105469 L 2.960938 3.878906 C 2.960938 3.300781 3.429688 2.832031 4.007812 2.832031 L 15.976562 2.832031 C 16.550781 2.832031 17.019531 3.300781 17.019531 3.878906 Z M 10.339844 5.238281 C 10.339844 4.839844 10.132812 4.492188 9.726562 4.195312 C 9.316406 3.894531 8.847656 3.746094 8.316406 3.746094 L 6.039062 3.746094 C 5.503906 3.746094 5.035156 3.894531 4.632812 4.195312 C 4.226562 4.492188 4.027344 4.839844 4.027344 5.238281 L 4.027344 10.347656 C 4.027344 10.746094 4.226562 11.09375 4.628906 11.386719 C 5.03125 11.683594 5.496094 11.832031 6.03125 11.832031 L 6.082031 11.832031 L 6.878906 13.113281 L 9.09375 13.113281 L 8.34375 11.824219 C 8.875 11.824219 9.339844 11.679688 9.738281 11.382812 C 10.136719 11.085938 10.339844 10.742188 10.339844 10.34375 Z M 19.808594 1.875 L 19.808594 18.105469 C 19.808594 19.140625 18.96875 19.980469 17.933594 19.980469 L 2.046875 19.980469 C 1.011719 19.980469 0.171875 19.140625 0.171875 18.105469 L 0.171875 1.875 C 0.171875 0.839844 1.011719 0 2.046875 0 L 17.933594 0 C 18.96875 0 19.808594 0.839844 19.808594 1.875 Z M 17.757812 3.878906 C 17.757812 2.894531 16.957031 2.09375 15.976562 2.09375 L 4.007812 2.09375 C 3.023438 2.09375 2.222656 2.894531 2.222656 3.878906 L 2.222656 16.105469 C 2.222656 17.085938 3.023438 17.886719 4.007812 17.886719 L 15.976562 17.886719 C 16.957031 17.886719 17.757812 17.085938 17.757812 16.105469 Z M 17.757812 3.878906 "/>
</g>
</svg>
